<?xml version="1.0" encoding="utf-8"?>
<!-- Generator: Adobe Illustrator 27.5.0, SVG Export Plug-In . SVG Version: 6.00 Build 0)  -->
<svg version="1.1" id="Layer_1" xmlns:xodm="http://www.corel.com/coreldraw/odm/2003"
	 xmlns="http://www.w3.org/2000/svg" xmlns:xlink="http://www.w3.org/1999/xlink" x="0px" y="0px" viewBox="0 0 2000 2000"
	 style="enable-background:new 0 0 2000 2000;" xml:space="preserve">
<g id="Layer_x5F_1">
	<g id="_2525869589584">
		<rect style="fill:#FFFFFF;" width="2000" height="2000"/>
		<g>
			<path style="fill:#E0365B;" d="M1536.14,1134.44v84.69l11.52,6.52v221.85l-11.52-6.53v92.83h-280.29
				c-69.53,61.88-149.69,119.09-240.57,171.66l-18.43,10.66l-18.94-9.74c-91.94-47.34-173.33-105.47-244.11-172.58H454.78v-440.28
				c-22.94-66.56-40.46-136.01-52.53-207.69l-2.9-17.27l10.97-13.64c46.11-57.33,95.18-110.74,150.61-159.22
				c51.59-45.11,106.99-84.6,164.5-121.62c45.54-136.85,116.41-255.95,269.21-288.48l8.12-1.73l8.12,1.73
				c83.52,17.78,150.96,68.5,199.29,136.78c113.21-7.72,219,3.19,331.26,24.62l26.01,4.97l4.97,26.02
				C1619.52,724.71,1607.87,943.3,1536.14,1134.44L1536.14,1134.44z"/>
			<path style="fill:#292637;" d="M440.7,879.36c98.64-122.63,184.6-195.55,317.48-279.95c40.38-126.75,101.15-245.14,244.58-275.68
				c80.88,17.22,144.28,69.88,187.66,139.32c120.5-10.86,225.42-0.33,343.7,22.25c100.37,525.73-71.34,916.25-538.36,1186.41
				C720.99,1530.26,505.79,1265.93,440.7,879.36L440.7,879.36z"/>
			<path style="fill:#737079;" d="M1002.76,387.45c0,0,119.79,25.52,172.95,192.42l-36.34-8.08c0,0,73.35,43.07,73.35,146.71
				l-19.51,2.02c173.62,106.32-82.28,245.78-162.86,277.25c265.57-165.56,206.31-221.84-27.59-370.43
				C768.87,775.93,709.6,832.21,975.17,997.77c-80.58-31.47-336.48-170.93-162.86-277.25l-19.51-2.02
				c0-103.64,73.35-146.71,73.35-146.71l-36.34,8.08C882.98,412.97,1002.76,387.45,1002.76,387.45L1002.76,387.45z"/>
			<path style="fill:#737079;" d="M1002.76,768.29c0,0,122.52,20.85,162.18,43.75c0,0-41.97,61.64-98.25,76.72
				c0,0,26.92-1.35,43.74-5.39c0,0-49.51,60.46-107.67,76.05c-58.16-15.59-107.67-76.05-107.67-76.05
				c16.82,4.04,43.74,5.39,43.74,5.39c-56.28-15.08-98.25-76.72-98.25-76.72C880.24,789.14,1002.76,768.29,1002.76,768.29
				L1002.76,768.29z"/>
			<path style="fill:#737079;" d="M1303.37,1073.47c-48.92-15.98-101.87-46.73-142.01-104.95c30.16-20.01,60.86-43.72,84.65-71.24
				c96.38,15.17,166.47,93.79,193.5,191.09c0,0-64.96,59.13-150.64,99.18c-14.14-14.84-32.71-38.47-40.1-66.05
				c0,0-2.83,34.77,11.11,78.49c-39.69,68.76-106.39,157.88-257.12,198.27c-150.73-40.39-217.42-129.51-257.12-198.27
				c13.94-43.72,11.11-78.49,11.11-78.49c-7.39,27.58-25.96,51.21-40.09,66.05c-85.69-40.05-150.65-99.18-150.65-99.18
				c27.03-97.3,97.12-175.92,193.5-191.09c23.79,27.52,54.49,51.23,84.65,71.24c-40.14,58.22-93.09,88.97-142.01,104.95
				c66.71,0.43,129.59-20.99,182.39-73.28c35.54,26.12,78.17,44.44,118.22,61.17c40.05-16.73,82.68-35.05,118.22-61.17
				C1173.78,1052.48,1236.66,1073.9,1303.37,1073.47z"/>
			<path style="fill:#292637;" d="M1391.02,1072.54c0,0,3.25-63.64-51.53-98.96c0,0,17.38,27.06,24.38,66.6
				c0,0-59.8-5.65-122.25-41.7C1284.71,1052.15,1350.38,1072.54,1391.02,1072.54z"/>
			<path style="fill:#292637;" d="M1002.76,1299.6c0,0,125.14-31.3,170.96-61.09c0,0-37.84,70.6-170.96,120.57
				c-133.12-49.97-170.96-120.57-170.96-120.57C877.63,1268.3,1002.76,1299.6,1002.76,1299.6L1002.76,1299.6z"/>
			<path style="fill:#292637;" d="M614.51,1072.54c0,0-3.26-63.64,51.52-98.96c0,0-17.38,27.06-24.38,66.6
				c0,0,59.8-5.65,122.25-41.7C720.81,1052.15,655.14,1072.54,614.51,1072.54z"/>
			<path style="fill:#292637;" d="M1002.76,1122.23c0,0,81.35-31.31,111.14-61.1c0,0-24.6,70.61-111.14,120.57
				c-86.54-49.96-111.14-120.57-111.14-120.57C921.41,1090.92,1002.76,1122.23,1002.76,1122.23z"/>
			<path style="fill:#E6E6E6;" d="M995.77,1469.36c-23.11-15.71-45.39-32.43-66.79-50.1c-90.09-36.35-156.99-92.07-213.18-183.76
				c-47.35-22.13-86.37-44.38-123.98-71.37c87.9,182.6,229.33,334.58,403.94,435.59c169.93-98.3,308.44-244.88,396.76-420.99
				c-31.24,20.66-64.26,38.76-102.8,56.77c-61.44,100.26-135.7,157.52-239.08,193.47
				C1032.94,1443.06,1014.64,1456.54,995.77,1469.36z"/>
			<path style="fill:#E6E6E6;" d="M1388.25,728.37c0,59.76-5.92,118.61-17.35,175.85c37.68,28.99,65.38,67.47,86.24,111.3
				c45.64-153.48,54.01-318.2,23.7-476.95c-91.88-17.54-186.97-22.27-281.22-13.78c12.72,28.9,23.34,59.11,32.89,89.08
				c3.08,6.11,5.86,12.34,8.34,18.69c47.47-2.64,95.37-1.53,142.68,3.32C1386.68,666.59,1388.25,697.47,1388.25,728.37
				L1388.25,728.37z"/>
			<path style="fill:#E6E6E6;" d="M715.84,840.23c-14.8-44.36-4.84-88.32,33.19-125.96c0.21-12.65,1.34-25.14,3.42-37.39
				c-93.47,59.37-176.49,133.74-245.65,219.73c7.91,47,19.09,92.9,33.28,137.45c27.18-64.6,67.39-119.47,129.84-152.51
				C684.79,867.21,700.11,853.43,715.84,840.23L715.84,840.23z"/>
			<path style="fill:#494556;" d="M1030.35,997.77c80.58-31.47,336.48-170.93,162.86-277.25l19.51-2.02
				c0-103.64-73.35-146.71-73.35-146.71s33.36,47.65,38.1,114.39c0,0-16.35-2.11-39.28-8.03c0,0,26.06,26.98,45.69,60.97
				c0,0-111.39-81.72-181.12-111.78C1236.66,775.93,1295.92,832.21,1030.35,997.77L1030.35,997.77z"/>
			<path style="fill:#494556;" d="M1050.6,562.52c0,0,65.35,65.02,105.29,104.97c-6.88-49.01-29.32-94.57-46.91-123.64l38.58,12.7
				c0,0-21.68-56.89-57.01-92.22l1.65,65.69l-59.34-34.26L1050.6,562.52z"/>
			<path style="fill:#494556;" d="M1303.37,1073.47c0,0-67.07,8.79-150.79-13.64c0,0-26.04,64.65-57.88,96.49
				c0,0,19.2-46.78,19.2-95.19c0,0-24.6,70.61-111.14,120.57c-86.54-49.96-111.14-120.57-111.14-120.57
				c0,48.41,19.2,95.19,19.2,95.19c-31.84-31.84-57.88-96.49-57.88-96.49c-83.71,22.43-150.79,13.64-150.79,13.64
				c48.92-15.98,101.87-46.73,142.01-104.95c-45.65,56.28-136.02,91.41-136.02,91.41c42.78-24.7,55.76-61.45,55.76-61.45
				c-43.09,53.67-108.76,74.06-149.39,74.06c0,0-3.26-63.64,51.52-98.96c-44.86,24.5-62.06,57.05-62.06,57.05
				c15.01-56.02,65.92-96.87,65.92-96.87c-49.97,35.13-86.17,90.86-103.88,154.61c0,0,64.96,59.13,150.65,99.18
				c11.74-12.33,26.54-30.73,35.46-52.42l4.63-13.63c0,0,16.64,27.24,16.64,72.59c0,0,23.93,62.35,87.55,108.97
				c0,0-19.22-32.1-29.14-64.55c45.83,29.79,170.96,61.09,170.96,61.09s125.14-31.3,170.96-61.09
				c-9.91,32.45-29.14,64.55-29.14,64.55c63.62-46.62,87.55-108.97,87.55-108.97c0-45.35,16.64-72.59,16.64-72.59l4.64,13.63
				c8.91,21.69,23.71,40.09,35.46,52.42c85.68-40.05,150.64-99.18,150.64-99.18c-17.71-63.75-53.91-119.48-103.87-154.61
				c0,0,50.91,40.85,65.91,96.87c0,0-17.2-32.55-62.06-57.05c54.78,35.32,51.53,98.96,51.53,98.96
				c-40.64,0-106.31-20.39-149.4-74.06c0,0,12.98,36.75,55.76,61.45c0,0-90.37-35.13-136.02-91.41
				C1201.5,1026.74,1254.45,1057.49,1303.37,1073.47L1303.37,1073.47z"/>
			<path style="fill:#494556;" d="M1061.07,898.79c0,0-24.6,22.37-58.31,31.15c-33.7-8.78-58.31-31.15-58.31-31.15
				c29.66-7.95,40.43-17.74,40.43-17.74c-92.75-16.03-144.3-69.01-144.3-69.01s41.97,61.64,98.25,76.72c0,0-26.92-1.35-43.74-5.39
				c0,0,49.51,60.46,107.67,76.05c58.16-15.59,107.67-76.05,107.67-76.05c-16.82,4.04-43.74,5.39-43.74,5.39
				c56.28-15.08,98.25-76.72,98.25-76.72s-51.54,52.98-144.3,69.01C1020.64,881.05,1031.41,890.84,1061.07,898.79L1061.07,898.79z"
				/>
			<path style="fill:#494556;" d="M1280.97,928.62c0,0,46.14,40.24,58.31,88.37c0,0-56.92-13.66-106.98-47.55L1280.97,928.62
				L1280.97,928.62z"/>
			<path style="fill:#999999;" d="M1450.39,885.54c-17.51-30.32-43.26-65.8-43.26-65.8c0-105.21-23.6-183.86-23.6-183.86
				c3.15,30.71,4.72,61.59,4.72,92.49c0,59.76-5.92,118.61-17.35,175.85c37.68,28.99,65.38,67.47,86.24,111.3
				c45.64-153.48,54.01-318.2,23.7-476.95C1492.83,706.41,1450.39,885.54,1450.39,885.54L1450.39,885.54z"/>
			<path style="fill:#999999;" d="M1408.2,642.04c0,0,18.1,73.14,26.62,135.01c0,0,25.75-97.89,29.73-214.56L1408.2,642.04z"/>
			<path style="fill:#494556;" d="M724.55,928.62c0,0-46.14,40.24-58.31,88.37c0,0,56.92-13.66,106.98-47.55L724.55,928.62z"/>
			<path style="fill:#999999;" d="M995.77,1599.71l-0.01,0.01c-174.61-101.01-316.04-252.99-403.94-435.59
				c37.61,26.99,76.63,49.24,123.98,71.37c56.19,91.69,123.09,147.41,213.18,183.76c21.4,17.67,43.68,34.39,66.79,50.1
				c-127.46-34.15-236.13-132.98-236.13-132.98l-21.85,3.9C817.41,1451.73,898.4,1515.88,995.77,1599.71z"/>
			<path style="fill:#999999;" d="M997,1468.52l-0.15,0.1l-0.2,0.14l-0.88,0.6c127.46-34.15,236.13-132.98,236.13-132.98l21.85,3.9
				c-79.62,111.45-160.61,175.6-257.98,259.43c169.93-98.3,308.43-244.88,396.75-420.98c-31.24,20.66-64.26,38.76-102.8,56.77
				c-61.44,100.26-135.7,157.52-239.08,193.47C1033.33,1442.76,1015.44,1455.95,997,1468.52L997,1468.52z"/>
			<path style="fill:#999999;" d="M540.08,1034.06c27.18-64.6,67.39-119.47,129.84-152.51c14.87-14.34,30.19-28.12,45.92-41.32
				c-14.8-44.36-4.84-88.32,33.19-125.96c0.21-12.65,1.34-25.14,3.42-37.39c-27.8,17.66-54.68,36.64-80.54,56.87
				c-4.6,24.01-8.66,57.98-1.82,83.49l-22.69,24.37C647.4,841.61,565.11,940.65,540.08,1034.06L540.08,1034.06z"/>
			<path style="fill:#999999;" d="M526.31,900.88c0,0,42.88-56.6,76.04-83.47c0,0-40.02,90.34-62.89,148.08L526.31,900.88
				L526.31,900.88z"/>
			<path style="fill:#494556;" d="M975.17,997.77c-80.58-31.47-336.48-170.93-162.86-277.25l-19.51-2.02
				c0-103.64,73.35-146.71,73.35-146.71s-33.36,47.65-38.09,114.39c0,0,16.34-2.11,39.27-8.03c0,0-26.06,26.98-45.69,60.97
				c0,0,111.4-81.72,181.12-111.78C768.87,775.93,709.6,832.21,975.17,997.77L975.17,997.77z"/>
			<path style="fill:#494556;" d="M954.92,562.52c0,0-65.34,65.02-105.29,104.97c6.88-49.01,29.33-94.57,46.91-123.64l-38.58,12.7
				c0,0,21.68-56.89,57.01-92.22l-1.65,65.69l59.34-34.26L954.92,562.52z"/>
			<polygon style="fill:#292637;" points="1497.16,1122.41 1497.16,1241.84 1508.68,1248.37 1508.68,1380.6 1497.16,1374.07 
				1497.16,1494.81 493.77,1494.81 493.77,1122.41 			"/>
			<path style="fill:#FFFFFF;" d="M610.84,1159.22h43.78V1203v49.54h-43.78V1203h-36.49v60.29l80.27,46.47v1.54v2.69v39.55v3.84
				v56.84V1458l0,0h-43.78l0,0h-36.49h-43.78v-43.78v-73.35h43.78v73.35h36.49v-74.12h13.44l-0.77-0.38l-12.67-7.3l0,0l-80.27-46.47
				v-3.07v-1.15v-39.56v-3.84V1203v-43.78h43.78H610.84L610.84,1159.22z M757.93,1159.22h43.78V1203v106.76v4.23v39.55v3.84V1458
				h-43.78v-117.9h13.44l-0.77-0.38l-12.67-7.3l0,0l-36.49-21.12V1458h-43.78v-172.05v-4.22v-39.56v-3.84V1203v-43.78h43.78
				L757.93,1159.22L757.93,1159.22z M757.93,1284.42V1203h-36.49v60.29L757.93,1284.42z M948.8,1159.6v47.62v65.29V1458h-43.78
				v-225.43l-18.05,10.37l0,0h-0.39l-18.05-10.75V1458h-43.78v-250.78V1203v-39.56v-4.22l61.06,35.33l1.16,0.77l0.77-0.77
				L948.8,1159.6L948.8,1159.6z M1095.89,1414.22V1458l0,0l0,0h-43.78l0,0h-36.49l0,0h-43.78l0,0v-43.78v-255h43.78v255h36.49v-255
				h43.78V1414.22L1095.89,1414.22z M1199.2,1159.22h43.78V1203v80.65l-21.12,11.9l21.12,12.29v1.92v4.23v39.55v3.84V1458h-43.78
				v-117.9h13.44l-0.77-0.38l-12.67-7.3l0,0l-36.49-21.12V1458h-43.78v-172.05v-4.22v-39.56v-3.84V1203v-43.78h43.78H1199.2
				L1199.2,1159.22z M1199.2,1284.42V1203h-36.49v60.29L1199.2,1284.42z M1346.29,1159.22h43.78V1203v106.76v4.23v39.55v3.84V1458
				h-43.78v-117.9h13.44l-0.77-0.38l-12.67-7.3l0,0l-36.49-21.12V1458h-43.78v-172.05v-4.22v-39.56v-3.84V1203v-43.78h43.78
				L1346.29,1159.22L1346.29,1159.22z M1346.29,1284.42V1203h-36.49v60.29L1346.29,1284.42z M1471.87,1269.82v47.62l-11.52-6.53
				v101.39l0,0v45.7h-43.78l0.38-45.7v-61.06v-57.22h13.06l-13.44-7.68v-0.39l-11.14-6.53v-4.22v-39.56v-3.84l11.14,6.15v-78.73
				h43.78v104.07L1471.87,1269.82L1471.87,1269.82z"/>
			<defs>
				<filter id="Adobe_OpacityMaskFilter" filterUnits="userSpaceOnUse" x="540.16" y="1168.8" width="922.12" height="279.61">
					<feColorMatrix  type="matrix" values="1 0 0 0 0  0 1 0 0 0  0 0 1 0 0  0 0 0 1 0"/>
				</filter>
			</defs>
			<mask maskUnits="userSpaceOnUse" x="540.16" y="1168.8" width="922.12" height="279.61" id="id0">
				<defs>
					
						<filter id="Adobe_OpacityMaskFilter_00000016039742548639694370000016472833555866593721_" filterUnits="userSpaceOnUse" x="539.12" y="1167.76" width="924.2" height="281.69">
						<feFlood  style="flood-color:white;flood-opacity:1" result="back"/>
						<feBlend  in="SourceGraphic" in2="back" mode="normal"/>
					</filter>
				</defs>
				
					<mask maskUnits="userSpaceOnUse" x="539.12" y="1167.76" width="924.2" height="281.69" id="id0" style="filter:url(#Adobe_OpacityMaskFilter);">
					<g style="filter:url(#Adobe_OpacityMaskFilter_00000016039742548639694370000016472833555866593721_);">
						<defs>
							
								<filter id="Adobe_OpacityMaskFilter_00000168833358892658006320000003058001157578290320_" filterUnits="userSpaceOnUse" x="539.12" y="1167.76" width="924.2" height="281.69">
								<feFlood  style="flood-color:white;flood-opacity:1" result="back"/>
								<feBlend  in="SourceGraphic" in2="back" mode="normal"/>
							</filter>
						</defs>
						<mask maskUnits="userSpaceOnUse" x="539.12" y="1167.76" width="924.2" height="281.69" id="id0">
							<g style="filter:url(#Adobe_OpacityMaskFilter_00000168833358892658006320000003058001157578290320_);">
							</g>
						</mask>
						
							<linearGradient id="SVGID_1_" gradientUnits="userSpaceOnUse" x1="1001.22" y1="440.0301" x2="1001.22" y2="867.1087" gradientTransform="matrix(1 0 0 -1 0 2002)">
							<stop  offset="0" style="stop-color:#FFFFFF"/>
							<stop  offset="1" style="stop-color:#000000"/>
						</linearGradient>
						<rect x="539.12" y="1167.76" style="mask:url(#id0);fill:url(#SVGID_1_);" width="924.2" height="281.69"/>
					</g>
				</mask>
				
					<linearGradient id="SVGID_00000026151522043730539350000006560788454263290251_" gradientUnits="userSpaceOnUse" x1="1001.22" y1="440.0301" x2="1001.22" y2="867.1087" gradientTransform="matrix(1 0 0 -1 0 2002)">
					<stop  offset="0" style="stop-color:#FFFFFF"/>
					<stop  offset="1" style="stop-color:#FFFFFF"/>
				</linearGradient>
				
					<rect x="539.12" y="1167.76" style="fill:url(#SVGID_00000026151522043730539350000006560788454263290251_);" width="924.2" height="281.69"/>
			</mask>
			<path style="fill:#737079;" d="M540.16,1168.8v111.62l75.47,43.69l12.42,7.15l16.98,8.49v-24.46l-80.27-46.47v-75.41h55.67v49.54
				h24.6v-74.15H540.16L540.16,1168.8z M645.03,1349.69h-24.6v74.12h-55.67v-73.35h-24.6v97.95h104.87V1349.69L645.03,1349.69z
				 M687.25,1168.8v279.61h24.6v-153.75l50.87,29.45l12.42,7.15l16.98,8.49V1168.8H687.25L687.25,1168.8z M767.52,1301.05
				l-55.67-32.23v-75.41h55.67V1301.05z M792.12,1349.69h-24.6v98.72h24.6V1349.69z M939.21,1176.14l-45.6,26.1l-5.42,5.41
				l-7.44-4.95l-46.41-26.86v272.57h24.6v-233.1l27.92,16.63l27.75-15.94v232.41h24.6V1176.14L939.21,1176.14z M1086.3,1168.8h-24.6
				v255.01h-55.67V1168.8h-24.6v279.61h104.87L1086.3,1168.8L1086.3,1168.8z M1208.79,1299.04v2.01l-55.67-32.23v-75.41h55.67v98.5
				l24.6-13.87V1168.8h-104.87v279.61h24.6v-153.75l50.87,29.45l12.42,7.15l16.98,8.49v-26.39L1208.79,1299.04z M1233.39,1349.69
				h-24.6v98.72h24.6V1349.69z M1275.61,1168.8v279.61h24.6v-153.75l50.87,29.45l12.42,7.15l16.98,8.49V1168.8H1275.61z
				 M1355.88,1301.05l-55.67-32.23v-75.41h55.67V1301.05z M1380.48,1349.69h-24.6v98.72h24.6V1349.69z M1462.28,1275.41l-11.52-6.53
				V1168.8h-24.6v85.39l-11.14-6.15v25.89l11.14,6.53v0.31l24.6,14.06v-0.37l11.52,6.52V1275.41L1462.28,1275.41z M1450.76,1303.61
				h-24.22v108.77l-0.3,36.03h24.52V1303.61z"/>
		</g>
	</g>
</g>
</svg>
